<svg id="Layer_1" enable-background="new 0 0 505.606 505.606" height="512" viewBox="0 0 505.606 505.606" width="512" xmlns="http://www.w3.org/2000/svg"><g id="XMLID_2037_"><path id="XMLID_2072_" d="m496.819 8.787c-11.715-11.716-30.71-11.717-42.426 0-10.883 10.882-27.317 27.317-38.08 38.08l8.188 13.488 13.025 7.725 35.496-15.496z" fill="#76e2f8"/><path id="XMLID_2069_" d="m395.099 110.506 9.901-24.9-31.114 3.688c-9.678 9.678-164.793 164.793-174.492 174.492v42.427l115.606-100.607z" fill="#e9f1ff"/><path id="XMLID_2066_" d="m199.394 306.212h42.427l174.492-174.492 3.687-31.114-24.9 9.9z" fill="#d5def0"/><path id="XMLID_2063_" d="m150.754 206.359c17.068-17.068 38.742-27.483 62.679-30.119l11.53-1.27 17.379-119.364h-17.342c-60.1 0-116.603 23.404-159.099 65.901l39.099 69.099 45.754 15.754z" fill="#ffda2d"/><path id="XMLID_2060_" d="m150.754 206.36-84.853-84.853c-42.496 42.496-65.901 98.999-65.901 159.099l60 15 60-15c0-28.047 10.922-54.414 30.754-74.246z" fill="#fdbf00"/><path id="XMLID_2057_" d="m120 280.606h-120c0 60.1 23.404 116.603 65.901 159.099l54.099-39.099 30.754-45.754c-19.832-19.832-30.754-46.2-30.754-74.246z" fill="#ff9721"/><path id="XMLID_2054_" d="m150.754 354.852-84.853 84.853c42.496 42.497 98.999 65.901 159.099 65.901l15-60-15-60c-28.047 0-54.414-10.922-74.246-30.754z" fill="#90cc1c"/><path id="XMLID_2051_" d="m225 385.606v120c60.1 0 116.603-23.404 159.099-65.901l-24.099-54.099-60.754-30.754c-19.832 19.832-46.199 30.754-74.246 30.754z" fill="#00b44b"/><path id="XMLID_2048_" d="m450 263.265-120.725 17.57v12.125c-2.775 23.625-13.148 45.011-30.029 61.892l84.853 84.853c42.497-42.498 65.901-99 65.901-159.099z" fill="#00964b"/><path id="XMLID_2044_" d="m496.819 8.787-59.293 59.293 7.225 13.525 14.013 7.664c10.677-10.678 27.152-27.152 38.056-38.057 11.714-11.714 11.714-30.709-.001-42.425z" fill="#4bb9ec"/><path id="XMLID_2041_" d="m384.526 15.08c-5.101 5.101-37.308 37.307-42.427 42.426l53 53c13.629-3.381 24.241-6.015 39.901-9.9l2.525-32.525z" fill="#6058ad"/><path id="XMLID_2038_" d="m395.1 110.506 52.999 53c5.101-5.1 37.308-37.308 42.427-42.426l-53-53z" fill="#453f81"/></g></svg>